<svg width="1900" height="2163" viewBox="0 0 1900 2163" fill="none" xmlns="http://www.w3.org/2000/svg">
<path d="M454.913 1131.16C650.74 1221.52 490.583 1439.93 747.712 1558.57C849.173 1605.39 967.725 1564.43 1012.83 1467.04C1013.75 1465.05 1014.66 1463.07 1015.44 1461.02C1077.81 1325.83 983.993 1239.7 864.214 1177.38C777.75 1133.88 741.728 1031.4 783.793 948.441C784.917 946.379 785.899 944.251 787.164 942.255C830.558 848.207 895.811 835.475 1050.13 871.062C1143.95 893.018 1217.99 877.285 1258.7 789.054C1289.39 724.413 1259.87 646.273 1192.51 614.333C1185.9 611.114 1179.11 608.669 1172.19 606.508C988.428 521.72 889.437 704.184 718.018 625.091C635.853 575.997 604.754 474.419 647.07 392.778C750.154 169.362 1109.02 163.751 1317.19 259.801C1592.62 386.886 1745.86 650.115 1621.05 920.626C1558.19 1047.16 1435 1133.98 1290.95 1153.37C1426.91 1294.38 1459.42 1500.7 1372.42 1668.74C1239.49 1956.84 899.808 2049.58 575.417 1899.91C244.783 1747.36 100.4 1416.81 198.052 1205.17C246.578 1123.13 350.256 1089.41 442.71 1125.53" fill="#F4C950"/>
</svg>
