<svg width="2074" height="1890" viewBox="0 0 2074 1890" fill="none" xmlns="http://www.w3.org/2000/svg">
<path d="M1261.74 333.141C1211.37 245.904 1238.49 135.958 1322.26 87.593C1406.03 39.2277 1514.8 70.7181 1565.17 157.956L1962.68 846.465C2027.81 959.274 2013.9 1072.76 1927.19 1122.82C1808.03 1191.62 1545.52 1087.31 1439.29 1065.97C1295.02 1028.87 827.629 907.531 681.341 991.991C583.777 1048.32 575.237 1120.99 620.834 1199.97C751.16 1425.7 994.821 1134.46 1118.68 1348.99C1172.21 1434.4 1149.31 1545.38 1067.5 1597.14C1062.09 1600.56 1056.37 1603.71 1050.57 1606.46C786.802 1750.6 450.81 1645.12 300.167 1370.62C298.991 1368.58 297.928 1366.48 296.752 1364.45C143.627 1099.22 193.255 784.684 453.273 634.562C745.851 465.643 1154.77 635.83 1470.33 694.425L1258.54 327.597L1261.74 333.141Z" fill="#F1F3F4"/>
</svg>
