<svg width="1993" height="2190" viewBox="0 0 1993 2190" fill="none" xmlns="http://www.w3.org/2000/svg">
<path d="M498.905 1099.17C685.677 1207 506.273 1409.91 751.513 1551.5C848.283 1607.37 970.076 1577.39 1023.87 1484.52C1024.97 1482.62 1026.06 1480.73 1027.02 1478.76C1101.46 1349.82 1015.88 1255.5 902.286 1182.52C820.149 1131.31 793.621 1025.98 843.075 947.197C844.382 945.245 845.553 943.216 846.996 941.343C898.784 851.644 964.927 844.914 1115.36 894.423C1206.79 924.843 1281.95 915.926 1330.54 831.774C1366.99 770.201 1344.72 689.695 1280.55 651.745C1274.27 647.938 1267.73 644.884 1261.03 642.102C1085.76 540.91 970.55 713.589 807.056 619.196C729.71 562.815 708.002 458.824 757.586 381.381C880.612 168.295 1238.49 195.428 1437.04 310.059C1699.74 461.729 1828.34 737.833 1679.38 995.836C1605.25 1116.11 1474.65 1191.34 1329.43 1197.51C1451.97 1350.33 1465.54 1558.76 1363.58 1718.17C1204.93 1992.95 858.205 2054.33 548.813 1875.7C233.465 1693.64 119.823 1351.31 236.365 1149.45C292.17 1072.17 398.49 1048.05 487.265 1092.45" fill="#F1F3F4"/>
</svg>
