<svg width="1813" height="2129" viewBox="0 0 1813 2129" fill="none" xmlns="http://www.w3.org/2000/svg">
<g opacity="0.3">
<path d="M593.716 1450.67C795.672 1375 838.308 1642.47 1103.49 1543.12C1208.12 1503.91 1262.38 1390.82 1224.87 1290.27C1224.1 1288.22 1223.34 1286.17 1222.42 1284.18C1170.19 1144.76 1042.98 1150.89 914.433 1192.21C822.694 1223.08 724.512 1176.61 695.119 1088.36C694.443 1086.12 693.621 1083.92 693.091 1081.62C656.751 984.626 693.592 929.282 827.42 844.607C909.016 793.348 949.902 729.649 915.809 638.655C891.437 571.38 815.126 537.411 745.045 562.834C738.112 565.265 731.599 568.373 725.196 571.773C535.68 642.78 595.774 841.478 418.989 907.715C326.303 931.598 232.219 882.267 203.941 794.767C117.612 564.357 366.009 305.296 580.697 224.858C864.753 118.429 1159.65 194.619 1264.18 473.597C1309.92 607.27 1285.01 755.907 1197.48 871.95C1393.35 874.469 1562.89 996.46 1621.16 1176.49C1732.48 1473.61 1559.51 1780.32 1224.97 1905.66C883.985 2033.42 547.459 1903.59 465.68 1685.32C441.483 1593.13 490.431 1495.71 581.131 1455.39" fill="#008DCC" fill-opacity="0.7"/>
<path d="M593.716 1450.67C795.672 1375 838.308 1642.47 1103.49 1543.12C1208.12 1503.91 1262.38 1390.82 1224.87 1290.27C1224.1 1288.22 1223.34 1286.17 1222.42 1284.18C1170.19 1144.76 1042.98 1150.89 914.433 1192.21C822.694 1223.08 724.512 1176.61 695.119 1088.36C694.443 1086.12 693.621 1083.92 693.091 1081.62C656.751 984.626 693.592 929.282 827.42 844.607C909.016 793.348 949.902 729.649 915.809 638.655C891.437 571.38 815.126 537.411 745.045 562.834C738.112 565.265 731.599 568.373 725.196 571.773C535.68 642.78 595.774 841.478 418.989 907.715C326.303 931.598 232.219 882.267 203.941 794.767C117.612 564.357 366.009 305.296 580.697 224.858C864.753 118.429 1159.65 194.619 1264.18 473.597C1309.92 607.27 1285.01 755.907 1197.48 871.95C1393.35 874.469 1562.89 996.46 1621.16 1176.49C1732.48 1473.61 1559.51 1780.32 1224.97 1905.66C883.985 2033.42 547.459 1903.59 465.68 1685.32C441.483 1593.13 490.431 1495.71 581.131 1455.39" fill="url(#paint0_linear)"/>
</g>
<defs>
<linearGradient id="paint0_linear" x1="1060.85" y1="468.667" x2="1255.79" y2="1114.17" gradientUnits="userSpaceOnUse">
<stop stop-color="#008DCC"/>
<stop offset="1" stop-color="#008DCC" stop-opacity="0"/>
</linearGradient>
</defs>
</svg>
