<svg width="2052" height="2052" viewBox="0 0 2052 2052" fill="none" xmlns="http://www.w3.org/2000/svg">
<path opacity="0.3" d="M376.72 966.601C305.491 1037.83 192.274 1040.09 123.875 971.696C55.4759 903.297 57.7408 790.08 128.97 718.851L691.135 156.686C783.243 64.5775 896.466 48.6455 967.265 119.444C1064.56 216.735 1031.75 497.296 1038.62 605.43C1040.13 754.383 1043.89 1237.26 1163.34 1356.7C1243 1436.36 1315.4 1425.8 1379.89 1361.32C1564.2 1177.01 1219.82 1017.03 1394.98 841.867C1463.62 768.053 1576.75 761.448 1647.92 827.075C1652.63 831.413 1657.15 836.121 1661.3 841.014C1868.8 1058.49 1853.88 1410.34 1627.72 1626.89C1626.06 1628.55 1624.3 1630.12 1622.64 1631.79C1406.09 1848.34 1089.42 1881.81 877.117 1669.51C638.228 1430.62 696.779 991.582 671.706 671.614L372.193 971.128L376.72 966.601Z" fill="#DCEDF6"/>
</svg>
