<svg width="1480" height="580" viewBox="0 0 1480 580" fill="none" xmlns="http://www.w3.org/2000/svg">
<mask id="mask0" mask-type="alpha" maskUnits="userSpaceOnUse" x="0" y="0" width="1480" height="580">
<path d="M0 0H1480V580H0V0Z" fill="#008DCC"/>
</mask>
<g mask="url(#mask0)">
<path d="M-50 -689.689H1455C1496.42 -689.689 1530 -656.111 1530 -614.689V684.378H-50V-689.689Z" fill="#008DCC"/>
<g style="mix-blend-mode:multiply" opacity="0.2">
<path d="M-115.851 1384.67C31.0179 1470.34 84.0335 1655.36 2.60793 1797.85C-78.8176 1940.34 -263.916 1986.46 -410.785 1900.79L-1569.93 1224.64C-1759.85 1113.85 -1835.09 934.843 -1750.81 787.351C-1634.99 584.67 -1164.45 515.064 -991.598 456.155C-750.029 388.106 33.5751 169.34 175.768 -79.4923C270.599 -245.445 221.88 -359.756 88.917 -437.316C-291.114 -658.997 -401.212 -22.7459 -762.384 -233.426C-912.329 -313.713 -972.364 -496.673 -896.653 -642.498C-891.649 -652.143 -885.965 -661.647 -879.818 -670.625C-616.574 -1107.29 -37.9065 -1237.66 412.797 -961.427C416.226 -959.427 419.545 -957.234 422.974 -955.234C869.486 -694.773 1061.9 -189.221 809.165 253.062C524.78 750.726 -214.689 847.809 -724.091 1029.87L-106.517 1390.11L-115.851 1384.67Z" fill="#008DCC"/>
</g>
<path opacity="0.1" d="M1107.5 1113.21C1326.48 1113.21 1504 933.632 1504 712.107C1504 490.582 1326.48 311 1107.5 311C888.519 311 711 490.582 711 712.107C711 933.632 888.519 1113.21 1107.5 1113.21Z" fill="white"/>
</g>
</svg>
