<svg width="86" height="53" viewBox="0 0 86 53" fill="none" xmlns="http://www.w3.org/2000/svg">
<path d="M27.3092 26.0943L25.0325 30.9155C25.0325 30.9155 8.93501 34.2636 14.4526 22.6123" fill="#DCEDF6"/>
<path d="M27.3092 26.0943L25.0325 30.9155C25.0325 30.9155 8.93501 34.2636 14.4526 22.6123" stroke="#008DCC" stroke-width="2.5" stroke-miterlimit="10" stroke-linecap="round" stroke-linejoin="round"/>
<path d="M38.3188 25.9334H27.2568L16.168 22.9335C16.168 22.9335 11.1593 21.5675 12.6592 19.0229" stroke="#008DCC" stroke-width="2.5" stroke-miterlimit="10" stroke-linecap="round" stroke-linejoin="round"/>
<path d="M56.4804 5.65746C56.4804 5.65746 54.7126 3.00579 52.0609 2.1219C49.4092 1.23801 29.0262 1.23801 23.7229 2.1219C23.7229 2.1219 20.1873 2.1219 19.3034 4.77357L15.5536 13.5321L14.0001 17.1748L9.98242 22.9335V39.7542H40.9989" stroke="#008DCC" stroke-width="2.5" stroke-miterlimit="10" stroke-linecap="round" stroke-linejoin="round"/>
<path d="M15.1543 14.416H38.3229" stroke="#008DCC" stroke-width="2.5" stroke-miterlimit="10" stroke-linecap="round" stroke-linejoin="round"/>
<path d="M27.2578 33.915H38.3198" stroke="#008DCC" stroke-width="2.5" stroke-miterlimit="10" stroke-linecap="round" stroke-linejoin="round"/>
<path d="M12.2852 39.7544V46.8523H22.5436V39.7544" stroke="#008DCC" stroke-width="2.5" stroke-miterlimit="10" stroke-linecap="round" stroke-linejoin="round"/>
<path d="M14.4548 15.7015C14.4548 15.7015 2 16.746 2 12.3266C2 7.90716 10.8657 7.88037 10.8657 7.88037V12.2998H15.928" fill="#DCEDF6"/>
<path d="M14.4548 15.7015C14.4548 15.7015 2 16.746 2 12.3266C2 7.90716 10.8657 7.88037 10.8657 7.88037V12.2998H15.928" stroke="#008DCC" stroke-width="2.5" stroke-miterlimit="10" stroke-linecap="round" stroke-linejoin="round"/>
<path d="M83.936 29.9512V12.0056C70.3027 12.0056 63.9548 3.91668 63.3655 3.11314V3.05957C63.3655 3.05957 63.3655 3.08635 63.3387 3.08635C63.3387 3.05957 63.312 3.05957 63.312 3.05957V3.13992C62.7227 3.94346 56.3748 12.0324 42.7415 12.0324V29.9512C42.7415 29.9512 41.8576 41.5757 63.312 51.4324V51.4592H63.3387H63.3655V51.4324C84.8467 41.5757 83.936 29.9512 83.936 29.9512Z" fill="#F8DF96" stroke="#008DCC" stroke-width="2.5" stroke-miterlimit="10" stroke-linecap="round" stroke-linejoin="round"/>
<path d="M56 28.2563L61.8026 34L71 23" stroke="#008DCC" stroke-width="2.5" stroke-miterlimit="10" stroke-linecap="round" stroke-linejoin="round"/>
</svg>
